<?xml version="1.0" encoding="UTF-8"?>
<svg id="Layer_2" data-name="Layer 2" xmlns="http://www.w3.org/2000/svg" viewBox="0 0 237.7 35.96">
  <defs>
    <style>
      .cls-1 {
        fill: #1400d3;
      }

      .cls-2 {
        fill: #fff;
      }
    </style>
  </defs>
  <g id="Layer_1-2" data-name="Layer 1">
    <g>
      <g>
        <path class="cls-2" d="M31.44,34.28c-1.74-.92-3.09-2.23-4.03-3.93-.95-1.7-1.42-3.65-1.42-5.86s.47-4.16,1.42-5.86c.95-1.7,2.29-3.01,4.03-3.93,1.74-.92,3.76-1.38,6.05-1.38s4.31.46,6.05,1.38c1.74.92,3.09,2.23,4.03,3.93.95,1.7,1.42,3.65,1.42,5.86s-.47,4.2-1.42,5.88c-.95,1.68-2.29,2.99-4.03,3.91-1.74.92-3.76,1.38-6.05,1.38s-4.31-.46-6.05-1.38ZM41.46,29.04c.98-1.16,1.47-2.68,1.47-4.54s-.49-3.38-1.47-4.54c-.98-1.16-2.3-1.74-3.97-1.74s-2.95.58-3.93,1.74c-.98,1.16-1.47,2.68-1.47,4.54s.49,3.38,1.47,4.54c.98,1.16,2.29,1.74,3.93,1.74s2.99-.58,3.97-1.74Z"/>
        <path class="cls-2" d="M66.67,13.58v5.44h-2.38c-1.7,0-2.94.51-3.74,1.53-.79,1.02-1.19,2.41-1.19,4.16v10.7h-5.99V13.58h5.44l.55,3.27c.65-1.08,1.46-1.89,2.42-2.44.96-.55,2.25-.83,3.86-.83h1.02Z"/>
        <path class="cls-2" d="M70.4,7.47h5.99v6.12h4.97v5.05h-4.97v9.55c0,.76.16,1.32.49,1.66.33.34.87.51,1.63.51h3.1v5.05h-4.97c-4.16,0-6.24-2.08-6.24-6.24V7.47Z"/>
        <path class="cls-2" d="M102.97,14.66c1.53.89,2.72,2.18,3.59,3.86.86,1.68,1.3,3.66,1.3,5.92s-.43,4.16-1.3,5.86c-.86,1.7-2.06,3.02-3.59,3.95-1.53.93-3.26,1.4-5.18,1.4-1.53,0-2.86-.29-3.99-.87-1.13-.58-2.07-1.37-2.8-2.36l-.59,2.97h-5.22V5.68h5.99v10.66c1.67-2.01,3.86-3.02,6.58-3.02,1.95,0,3.69.45,5.22,1.34ZM100.3,29.04c.99-1.16,1.49-2.68,1.49-4.54s-.5-3.38-1.49-4.54c-.99-1.16-2.29-1.74-3.91-1.74s-2.9.57-3.86,1.72c-.96,1.15-1.44,2.65-1.44,4.52s.48,3.43,1.44,4.59c.96,1.16,2.25,1.74,3.86,1.74s2.92-.58,3.91-1.74Z"/>
        <path class="cls-2" d="M132.78,13.58v21.83h-5.31l-.55-2.63c-.76.91-1.66,1.61-2.68,2.12-1.02.51-2.27.76-3.74.76-2.55,0-4.63-.79-6.24-2.36-1.61-1.57-2.42-4.2-2.42-7.88v-11.85h5.99v11.13c0,1.98.35,3.48,1.04,4.48.69,1.01,1.76,1.51,3.21,1.51s2.66-.56,3.48-1.68c.82-1.12,1.23-2.68,1.23-4.69v-10.74h5.99Z"/>
        <path class="cls-2" d="M155.8,14.66c1.53.89,2.72,2.18,3.59,3.86.86,1.68,1.3,3.66,1.3,5.92s-.43,4.16-1.3,5.86c-.86,1.7-2.06,3.02-3.59,3.95-1.53.93-3.26,1.4-5.18,1.4-1.53,0-2.86-.29-3.99-.87-1.13-.58-2.07-1.37-2.8-2.36l-.59,2.97h-5.22V5.68h5.99v10.66c1.67-2.01,3.86-3.02,6.58-3.02,1.95,0,3.69.45,5.22,1.34ZM153.12,29.04c.99-1.16,1.49-2.68,1.49-4.54s-.5-3.38-1.49-4.54c-.99-1.16-2.29-1.74-3.91-1.74s-2.9.57-3.86,1.72c-.96,1.15-1.44,2.65-1.44,4.52s.48,3.43,1.44,4.59c.96,1.16,2.25,1.74,3.86,1.74s2.92-.58,3.91-1.74Z"/>
        <path class="cls-2" d="M182.85,14.66c1.53.89,2.72,2.18,3.59,3.86.86,1.68,1.3,3.66,1.3,5.92s-.43,4.16-1.3,5.86c-.86,1.7-2.06,3.02-3.59,3.95-1.53.93-3.26,1.4-5.18,1.4-1.53,0-2.86-.29-3.99-.87-1.13-.58-2.07-1.37-2.8-2.36l-.59,2.97h-5.22V5.68h5.99v10.66c1.67-2.01,3.86-3.02,6.58-3.02,1.95,0,3.69.45,5.22,1.34ZM180.17,29.04c.99-1.16,1.49-2.68,1.49-4.54s-.5-3.38-1.49-4.54c-.99-1.16-2.29-1.74-3.91-1.74s-2.9.57-3.86,1.72c-.96,1.15-1.44,2.65-1.44,4.52s.48,3.43,1.44,4.59c.96,1.16,2.25,1.74,3.86,1.74s2.92-.58,3.91-1.74Z"/>
        <path class="cls-2" d="M192.11,5.68h5.99v29.73h-5.99V5.68Z"/>
        <path class="cls-2" d="M203.85,18.61c.92-1.68,2.21-2.99,3.86-3.91,1.66-.92,3.57-1.38,5.75-1.38s4.15.43,5.84,1.3c1.68.86,3,2.08,3.95,3.65.95,1.57,1.44,3.42,1.46,5.54,0,.76-.06,1.44-.17,2.04h-15.84v.17c.14,1.59.65,2.83,1.53,3.74.88.91,2.08,1.36,3.61,1.36,1.22,0,2.23-.26,3.04-.79.81-.52,1.34-1.3,1.59-2.31h5.9c-.23,1.44-.78,2.75-1.66,3.91-.88,1.16-2.04,2.07-3.48,2.74-1.44.67-3.1,1-4.97,1-2.44,0-4.54-.45-6.31-1.36-1.77-.91-3.13-2.2-4.08-3.89-.95-1.68-1.42-3.64-1.42-5.88s.46-4.24,1.38-5.92ZM218.73,21.95c-.2-1.33-.74-2.36-1.63-3.08-.89-.72-2.02-1.08-3.38-1.08s-2.4.38-3.29,1.13c-.89.75-1.42,1.76-1.59,3.04h9.89Z"/>
      </g>
      <rect class="cls-1" x="229.1" y="26.81" width="8.6" height="8.6"/>
      <rect class="cls-2" x="11" y="5.36" width="13.64" height="5.64"/>
      <polygon class="cls-2" points="4.44 35.96 11 35.96 11 23.54 22.19 23.54 22.19 18.17 11 18.17 11 11 4.44 11 4.44 35.96"/>
      <rect class="cls-1" width="8.85" height="8.85"/>
    </g>
  </g>
</svg>